<?xml version="1.0" encoding="iso-8859-1"?>
<!-- Generator: Adobe Illustrator 19.0.0, SVG Export Plug-In . SVG Version: 6.00 Build 0)  -->
<svg version="1.1" id="Capa_1" xmlns="http://www.w3.org/2000/svg" xmlns:xlink="http://www.w3.org/1999/xlink" x="0px" y="0px"
	 viewBox="0 0 511.999 511.999" style="enable-background:new 0 0 511.999 511.999;" xml:space="preserve">
<path style="fill:#747B81;" d="M358.483,142.053L511.999,0L369.946,153.516c-3.042,3.289-8.175,3.489-11.464,0.445
	c-3.289-3.044-3.488-8.175-0.444-11.463C358.177,142.347,358.335,142.191,358.483,142.053z"/>
<path style="fill:#C5D2D8;" d="M363.337,173.5l27.28-27.28c6.859-6.859,6.859-17.979,0-24.838l0,0
	c-6.859-6.859-17.979-6.859-24.838,0l-27.281,27.281"/>
<path style="fill:#97ABB1;" d="M390.617,121.382c-1.675-1.675-3.607-2.934-5.666-3.791c2.652,6.372,1.392,13.988-3.791,19.172
	l-27.28,27.28l9.457,9.457l27.28-27.28C397.476,139.362,397.476,128.24,390.617,121.382z"/>
<rect x="28.968" y="405.747" transform="matrix(-0.7071 0.7071 -0.7071 -0.7071 443.0141 678.5196)" style="fill:#747B81;" width="104.027" height="50.528"/>
<g>
	
		<rect x="89.113" y="380.832" transform="matrix(-0.7071 0.7071 -0.7071 -0.7071 467.9334 618.369)" style="fill:#495259;" width="33.57" height="50.528"/>
	
		<rect x="37.899" y="427.307" transform="matrix(-0.7071 0.7071 -0.7071 -0.7071 464.5738 687.4457)" style="fill:#495259;" width="104.027" height="25.264"/>
</g>
<path style="fill:#97ABB1;" d="M364.204,228.794L158.291,434.707l-81.021-81.021l205.913-205.913
	c22.373-22.373,58.647-22.373,81.021,0l0,0C386.578,170.148,386.578,206.422,364.204,228.794z"/>
<polyline style="fill:#C5D2D8;" points="215.864,280.053 218.586,293.413 129.349,382.65 88.829,342.129 178.066,252.892 
	191.401,255.638 "/>
<path style="fill:#E2181B;" d="M399.295,193.746L259.088,333.953l-81.02-81.02l140.208-140.208c3.005-3.005,7.876-3.005,10.88,0
	l70.139,70.139C402.299,185.869,402.299,190.741,399.295,193.746z"/>
<path style="fill:#B81328;" d="M399.295,193.746L264.446,328.594l-23.139-23.139l140.289-140.289l17.698,17.698
	C402.299,185.869,402.299,190.741,399.295,193.746z"/>
<path style="fill:#B0BDC3;" d="M199.235,464.088l-11.563,11.563c-3.005,3.005-7.876,3.005-10.881,0L36.349,335.209
	c-3.005-3.005-3.005-7.876,0-10.88l11.563-11.564c3.005-3.005,7.876-3.005,10.881,0l140.441,140.441
	C202.239,456.212,202.239,461.083,199.235,464.088z"/>
<path style="fill:#8D9BA0;" d="M199.235,464.088l-11.563,11.563c-3.005,3.005-7.876,3.005-10.881,0l-57.964-57.964l22.443-22.443
	l57.964,57.963C202.239,456.212,202.239,461.083,199.235,464.088z"/>
<rect x="114.085" y="320.627" transform="matrix(-0.7071 0.7071 -0.7071 -0.7071 528.1299 473.0229)" style="fill:#495259;" width="104.027" height="50.528"/>
<g>
	
		<rect x="105.158" y="324.333" transform="matrix(-0.7071 0.7071 -0.7071 -0.7071 506.5784 464.098)" style="fill:#747B81;" width="104.027" height="25.264"/>
	
		<rect x="156.12" y="283.723" transform="matrix(0.7071 0.7071 -0.7071 0.7071 273.6572 -63.4402)" style="fill:#747B81;" width="114.576" height="29.781"/>
</g>
<polygon style="fill:#495259;" points="241.307,305.454 220.752,326.976 243.388,349.612 264.405,328.594 "/>
<path style="fill:#747B81;" d="M84.732,500.802l-8.491,8.491c-3.609,3.609-9.46,3.609-13.069,0L2.707,448.828
	c-3.609-3.609-3.609-9.46,0-13.069l8.491-8.491c3.609-3.609,9.46-3.609,13.069,0l60.466,60.466
	C88.341,491.341,88.341,497.193,84.732,500.802z"/>
<path style="fill:#495259;" d="M84.732,487.732L69.57,472.57c3.609,3.609,3.609,9.46,0,13.069l-8.492,8.491
	c-3.609,3.609-9.46,3.609-13.069,0l15.163,15.163c3.609,3.609,9.46,3.609,13.069,0l8.492-8.491
	C88.341,497.192,88.341,491.341,84.732,487.732z"/>
<g>
</g>
<g>
</g>
<g>
</g>
<g>
</g>
<g>
</g>
<g>
</g>
<g>
</g>
<g>
</g>
<g>
</g>
<g>
</g>
<g>
</g>
<g>
</g>
<g>
</g>
<g>
</g>
<g>
</g>
</svg>
